<svg width="391" height="288" viewBox="0 0 391 288" fill="none" xmlns="http://www.w3.org/2000/svg">
<g clip-path="url(#clip0)">
<path d="M76.6251 48.3616C84.1629 48.3616 90.2734 42.0966 90.2734 34.3685C90.2734 26.6403 84.1629 20.3754 76.6251 20.3754C69.0873 20.3754 62.9767 26.6403 62.9767 34.3685C62.9767 42.0966 69.0873 48.3616 76.6251 48.3616Z" fill="#2F2E41"/>
<path d="M35.0556 202.834L43.4409 173.019L46.2954 173.934C46.2954 173.934 42.9056 196.25 37.5534 201.92L35.0556 202.834Z" fill="#2F2E41"/>
<path d="M66.9909 42.7826C66.9909 42.7826 68.0614 54.4893 65.5637 57.7818C63.0659 61.0743 67.1693 67.4763 67.1693 67.4763L74.6626 76.6221L85.724 71.5005L87.3297 61.9888L86.2592 55.4038C86.2592 55.4038 82.5126 51.5626 84.1183 44.6118C85.724 37.6609 66.9909 42.7826 66.9909 42.7826Z" fill="#FFB9B9"/>
<path opacity="0.1" d="M66.9909 42.7826C66.9909 42.7826 68.0614 54.4893 65.5637 57.7818C63.0659 61.0743 67.1693 67.4763 67.1693 67.4763L74.6626 76.6221L85.724 71.5005L87.3297 61.9888L86.2592 55.4038C86.2592 55.4038 82.5126 51.5626 84.1183 44.6118C85.724 37.6609 66.9909 42.7826 66.9909 42.7826Z" fill="black"/>
<path d="M73.4138 261.734V269.233L83.2262 271.245L82.3341 258.807L73.4138 261.734Z" fill="#FFB9B9"/>
<path d="M102.851 258.807L100.71 269.233L104.992 272.342L112.486 266.672L111.593 257.709L102.851 258.807Z" fill="#FFB9B9"/>
<path d="M84.1183 270.331C84.1183 270.331 80.3717 263.838 73.4137 267.907C73.4137 267.907 72.1649 275.086 70.916 275.635C69.6671 276.184 62.7092 286.61 70.916 287.525C79.1228 288.439 83.2263 285.696 83.2263 285.696C83.2263 285.696 81.6206 287.112 84.1183 286.38C86.6161 285.649 85.5456 281.625 85.5456 281.625L84.1183 270.331Z" fill="#2F2E41"/>
<path d="M108.56 265.941C108.56 265.941 103.03 269.965 102.138 268.136C101.246 266.306 99.8183 266.489 99.8183 266.489C99.8183 266.489 94.8229 285.797 98.0342 286.711C100.102 287.233 102.274 287.118 104.279 286.38C104.279 286.38 108.56 283.306 108.56 285.684C108.56 288.062 120.514 287.891 125.509 287.708C130.505 287.525 127.829 283.684 127.829 283.684L121.228 277.099L113.734 265.941C113.734 265.941 110.345 262.831 108.56 265.941Z" fill="#2F2E41"/>
<path d="M55.9296 143.57L63.4228 217.285C63.4228 217.285 67.5262 262.282 68.2398 263.014C68.9534 263.746 73.5921 266.123 83.7615 263.014L81.4421 204.115L85.724 167.532L95.5365 192.774C95.5365 192.774 97.8558 260.636 99.4615 260.636C101.067 260.636 110.88 263.928 113.199 259.904C115.518 255.88 115.162 212.529 115.162 212.529C115.162 212.529 114.091 144.118 106.241 141.923C98.391 139.728 55.9296 143.57 55.9296 143.57Z" fill="#2F2E41"/>
<path d="M76.6251 49.5505C83.4239 49.5505 88.9354 43.8998 88.9354 36.9293C88.9354 29.9588 83.4239 24.3081 76.6251 24.3081C69.8263 24.3081 64.3148 29.9588 64.3148 36.9293C64.3148 43.8998 69.8263 49.5505 76.6251 49.5505Z" fill="#FFB9B9"/>
<path d="M77.3387 72.0492C77.3387 72.0492 76.0898 64.1838 76.0898 62.7205C76.0898 61.2572 70.5591 60.3426 70.5591 60.3426C70.5591 60.3426 66.2773 55.4039 65.3853 56.1355C64.4932 56.8672 50.9341 66.1959 48.7932 67.4763C46.6522 68.7567 44.3329 74.2442 44.5113 74.6101C44.6897 74.9759 55.7511 98.755 55.7511 98.755C55.7511 98.755 60.5682 113.388 57.1784 121.071C53.7886 128.753 49.5068 143.935 55.7511 147.045C61.9955 150.155 92.3251 156.922 97.8558 151.069C103.387 145.216 107.312 143.57 108.739 143.57C110.166 143.57 102.851 118.144 104.457 115.766C106.063 113.388 103.743 98.5721 103.743 98.5721L111.95 74.9759C111.95 74.9759 111.237 61.8059 95.0013 58.8793L85.2886 54.0511L77.3387 72.0492Z" fill="#575A89"/>
<path d="M43.9761 146.862C43.9761 146.862 43.084 155.642 43.084 158.203C43.084 160.764 38.8022 175.763 45.0465 177.592C51.2908 179.421 50.7556 157.654 50.7556 157.654V146.496L43.9761 146.862Z" fill="#FFB9B9"/>
<path d="M118.016 138.631C118.016 138.631 119.087 147.045 118.551 148.874C118.016 150.703 123.725 166.617 116.054 167.532C108.382 168.446 110.344 148.508 110.344 148.508V138.631L118.016 138.631Z" fill="#FFB9B9"/>
<path d="M42.3704 199.908L47.5443 171.739H49.15C50.2727 173.223 51.009 174.975 51.2899 176.831C51.5708 178.686 51.387 180.585 50.7557 182.348C48.6148 188.567 46.8307 199.908 46.8307 199.908H42.3704Z" fill="#2F2E41"/>
<path d="M47.1875 72.4151L44.5113 74.6101C44.5113 74.6101 40.9431 132.778 41.8352 137.168C42.7272 141.558 38.6238 147.777 42.192 148.325C45.7602 148.874 50.042 151.252 52.0045 149.789C53.967 148.325 54.3239 143.021 55.0375 141.74C55.7511 140.46 57 125.278 57 125.278C57 125.278 60.7466 110.096 58.4273 98.7551C56.1079 87.4143 53.967 75.8905 53.967 75.8905L47.1875 72.4151Z" fill="#575A89"/>
<path d="M103.743 67.8422L111.95 74.9759L118.195 112.291C118.195 112.291 122.12 141.375 119.087 141.74C116.054 142.106 111.415 141.192 109.452 141.74C107.49 142.289 105.884 140.826 105.884 140.826C105.884 140.826 103.743 129.119 103.743 128.936C103.743 128.753 102.316 115.4 102.316 115.4L100.532 100.401L103.208 83.9388L103.743 67.8422Z" fill="#575A89"/>
<path d="M65.0284 240.515C65.0284 240.515 63.8688 243.93 62.2702 248.58C61.528 250.742 60.6913 253.173 59.8295 255.652C59.2747 257.254 58.7109 258.876 58.1561 260.46C57.2712 262.994 56.4112 265.427 55.6601 267.516C54.6681 270.272 53.8635 272.432 53.4318 273.44C51.4693 278.013 15.6089 270.696 12.7544 268.867C9.89981 267.038 9.18618 260.819 8.82936 252.039C8.82757 251.993 8.82578 251.948 8.82578 251.902C8.7794 250.129 9.22007 247.49 9.95692 244.393C10.3244 242.846 10.7669 241.185 11.2593 239.46C11.9194 237.146 12.6687 234.72 13.4519 232.306C16.8168 221.935 20.7828 211.797 20.7828 211.797C20.7828 211.797 27.7408 206.859 30.2385 203.566C32.7362 200.274 46.4738 197.713 46.4738 197.713C50.3988 197.896 59.3193 213.444 62.8875 218.199C66.4557 222.955 65.0284 240.515 65.0284 240.515Z" fill="#463C74"/>
<path d="M45.0465 212.712C45.9333 212.712 46.6522 211.975 46.6522 211.066C46.6522 210.156 45.9333 209.419 45.0465 209.419C44.1597 209.419 43.4409 210.156 43.4409 211.066C43.4409 211.975 44.1597 212.712 45.0465 212.712Z" fill="#2F2E41"/>
<path d="M47.5443 213.809C48.0369 213.809 48.4363 213.4 48.4363 212.895C48.4363 212.39 48.0369 211.98 47.5443 211.98C47.0516 211.98 46.6522 212.39 46.6522 212.895C46.6522 213.4 47.0516 213.809 47.5443 213.809Z" fill="#2F2E41"/>
<path d="M62.2702 248.58C61.5281 250.742 60.6913 253.173 59.8296 255.652L11.2593 239.46C11.9195 237.146 12.6688 234.72 13.452 232.306L62.2702 248.58Z" fill="#F2F2F2"/>
<path d="M58.1561 260.46C57.2712 262.994 56.4112 265.427 55.6601 267.516L8.82578 251.902C8.7794 250.129 9.22007 247.49 9.95692 244.393L58.1561 260.46Z" fill="#F2F2F2"/>
<path d="M45.0466 211.431C45.0466 211.431 48.6148 227.528 46.4738 241.796C44.3329 256.063 51.8261 269.416 51.8261 269.416" stroke="#2F2E41" stroke-width="3" stroke-miterlimit="10"/>
<path d="M47.5443 212.712C47.5443 212.712 40.5863 238.686 40.4079 242.344C40.2295 246.003 37.375 272.16 33.8068 274.904" stroke="#2F2E41" stroke-width="3" stroke-miterlimit="10"/>
<path d="M67.1742 29.2276C67.1742 29.2276 64.3877 21.7996 68.4282 19.3712L69.5428 22.6567C69.5428 22.6567 79.7136 16.3715 82.3608 17.7999L79.8529 21.2282C79.8529 21.2282 91.6956 21.2282 92.5315 25.9421L88.3518 26.085C88.3518 26.085 92.8102 29.0847 92.9495 33.9415L84.0327 34.5129L88.3518 37.0841C88.3518 37.0841 72.19 39.3696 68.2889 32.7987L67.1742 29.2276Z" fill="#2F2E41"/>
<path d="M64.7608 29.5212C64.7608 29.5212 67.9722 36.1062 72.254 34.4599C76.5359 32.8137 72.254 26.7775 72.254 26.7775L69.3995 25.3141L64.7608 29.5212Z" fill="#2F2E41"/>
<path d="M341.685 133.406L283.453 58.7999C280.809 61.2791 277.551 62.9656 274.035 63.6753C263.073 65.8889 252.366 58.2134 250.122 46.5318C249.349 42.6685 249.619 38.662 250.904 34.9447C252.189 31.2274 254.44 27.9404 257.413 25.4386L237.558 0L124.44 99.1192L228.566 232.525L341.685 133.406Z" fill="#F2F2F2"/>
<path d="M269.329 60.1308C278.396 60.1308 285.746 52.5951 285.746 43.2995C285.746 34.0039 278.396 26.4683 269.329 26.4683C260.263 26.4683 252.913 34.0039 252.913 43.2995C252.913 52.5951 260.263 60.1308 269.329 60.1308Z" fill="#F2F2F2"/>
<path d="M166.609 118.297L161.586 124.257L178.508 139.248L183.531 133.288L166.609 118.297Z" fill="#FD6234"/>
<path d="M275.393 224.881L270.37 230.841L285.371 244.13L290.394 238.17L275.393 224.881Z" fill="#FD6234"/>
<path d="M302.497 180.49V180.952C302.486 182.112 302.454 183.267 302.399 184.417C301.423 204.098 293.142 222.651 279.253 236.274C265.364 249.896 246.92 257.557 227.699 257.686C208.479 257.815 189.938 250.402 175.877 236.967C161.816 223.532 153.298 205.092 152.071 185.426C151.968 183.792 151.917 182.147 151.917 180.49C151.89 164.502 156.73 148.904 165.761 135.871C166.483 134.821 167.235 133.79 168.015 132.778C168.553 132.074 169.106 131.386 169.664 130.704C182.374 115.267 200.478 105.552 220.094 103.643C239.71 101.735 259.273 107.785 274.588 120.495C275.495 121.246 276.386 122.024 277.257 122.816C277.953 123.452 278.638 124.101 279.31 124.765C292.558 137.757 300.712 155.269 302.235 173.999C302.41 176.142 302.497 178.305 302.497 180.49Z" fill="#463C74"/>
<path d="M227.207 267.396C180.467 267.396 142.442 228.41 142.442 180.49C142.414 158.565 150.497 137.445 165.059 121.389L166.936 123.176C152.814 138.746 144.976 159.227 145.003 180.49C145.003 226.962 181.879 264.77 227.207 264.77C238.22 264.808 249.127 262.559 259.27 258.158C269.412 253.757 278.58 247.295 286.221 239.162L288.059 240.99C280.181 249.376 270.727 256.039 260.269 260.577C249.81 265.116 238.563 267.435 227.207 267.396Z" fill="#FD6234"/>
<path d="M239.499 265.558H217.988V287.612H239.499V265.558Z" fill="#FD6234"/>
<path d="M168.015 132.778C168.052 132.794 168.086 132.815 168.117 132.841C168.522 133.182 168.015 133.839 168.076 134.379C168.148 135.073 169.049 135.225 169.731 135.293C170.412 135.367 171.272 135.929 170.95 136.548C169.239 137.152 167.508 136.559 165.761 135.871C156.73 148.904 151.89 164.502 151.917 180.49C151.917 182.149 151.968 183.794 152.071 185.426C152.214 185.533 152.371 185.619 152.537 185.683C153.049 185.882 153.643 185.846 154.114 186.129C154.488 186.355 154.739 186.754 155.113 186.964C156.184 187.563 157.669 186.413 158.668 187.127C158.926 187.368 159.17 187.624 159.4 187.894C160.322 188.713 161.838 188.161 162.903 188.776C163.59 189.17 163.943 189.957 164.312 190.671C165.229 192.457 166.714 194.211 168.676 194.353C169.294 194.323 169.914 194.344 170.53 194.416C171.134 194.557 171.728 195.098 171.631 195.723C171.462 196.8 171.979 197.976 171.841 199.052C171.59 201.021 168.87 201.883 168.64 203.852C168.639 204.285 168.615 204.718 168.568 205.149C168.445 205.663 168.066 206.084 167.933 206.598C167.677 207.57 168.358 208.541 169.101 209.192C169.848 209.849 170.74 210.416 171.149 211.329C171.58 212.301 171.37 213.43 171.508 214.485C171.815 216.791 173.756 218.497 175.754 219.6C176.394 219.874 176.962 220.299 177.413 220.839C177.925 221.601 177.874 222.604 178.048 223.512C178.468 225.733 180.292 227.566 180.343 229.829C180.379 231.441 179.508 232.901 178.986 234.419C178.448 236.009 178.289 237.709 178.52 239.376C181.44 241.915 184.544 244.223 187.805 246.281C187.983 246.012 188.113 245.714 188.189 245.399C188.251 245.051 188.209 244.691 188.067 244.369C187.925 244.046 187.691 243.775 187.396 243.592C187.946 243.379 188.447 243.05 188.866 242.626C189.071 242.409 189.207 242.133 189.255 241.834C189.302 241.535 189.259 241.229 189.132 240.956C190.033 241.072 191.104 241.129 191.698 240.421C192.174 239.853 192.143 239.003 191.954 238.283C191.694 237.584 191.522 236.853 191.442 236.109C193.53 236.214 195.624 236.142 197.701 235.894C197.4 234.855 196.717 233.978 195.795 233.447C196.738 233.284 197.593 232.129 197.89 231.2C198.147 230.251 198.161 229.251 197.931 228.296C197.86 228.05 197.849 227.79 197.9 227.54C198.052 227.207 198.318 226.943 198.648 226.799C200.205 225.88 201.762 224.963 203.319 224.048C203.597 223.904 203.85 223.714 204.067 223.486C204.553 222.892 204.482 222.005 204.231 221.275C203.98 220.545 203.58 219.857 203.483 219.091C203.196 216.796 205.593 215.147 206.402 212.983C206.678 212.12 206.826 211.219 206.843 210.311C206.909 209.334 206.915 208.205 206.187 207.58C205.486 206.976 204.395 207.113 203.662 206.551C202.991 206.036 202.761 205.044 202.028 204.629C201.363 204.251 200.533 204.492 199.79 204.314C198.489 204.004 197.67 202.465 196.338 202.324C195.59 202.24 194.74 202.618 194.126 202.171C193.583 201.772 193.562 200.979 193.46 200.307C193.278 199.26 192.788 198.296 192.055 197.543C191.323 196.79 190.383 196.285 189.362 196.096C188.589 195.97 187.749 196.017 187.088 195.581C186.422 195.14 186.12 194.316 185.593 193.701C184.753 192.719 183.421 192.368 182.177 192.068C180.486 191.664 178.798 191.258 177.111 190.85C176.215 190.629 175.057 190.514 174.571 191.323C174.427 191.63 174.327 191.957 174.274 192.294C174.091 192.9 173.726 193.431 173.231 193.812C172.736 194.193 172.137 194.404 171.518 194.416C171.095 193.674 170.409 193.129 169.603 192.893C169.076 192.802 168.556 192.676 168.046 192.515C167.779 192.381 167.542 192.193 167.349 191.962C167.156 191.73 167.011 191.461 166.923 191.171C166.834 190.88 166.805 190.575 166.836 190.272C166.867 189.969 166.958 189.676 167.103 189.411C167.394 188.878 167.505 188.262 167.421 187.658C167.337 187.054 167.062 186.494 166.637 186.066C165.777 185.273 164.532 185.079 163.375 185.158C163.072 184.48 163.579 183.719 164.122 183.225C164.67 182.737 165.331 182.254 165.449 181.519C165.638 180.364 164.199 179.487 163.108 179.828C162.017 180.174 161.321 181.261 160.86 182.333C160.636 182.965 160.331 183.563 159.953 184.113C159.76 184.385 159.496 184.596 159.193 184.724C158.889 184.852 158.557 184.891 158.232 184.837C157.331 184.601 156.988 183.504 156.788 182.579C156.468 181.344 156.306 180.072 156.307 178.793C156.314 177.503 156.814 176.266 157.7 175.349C159.19 173.941 161.485 174.078 163.498 174.304C163.282 174.009 163.179 173.644 163.207 173.276C163.235 172.909 163.393 172.565 163.651 172.308C163.921 172.063 164.244 171.889 164.594 171.801C164.944 171.713 165.31 171.714 165.659 171.804C166.266 171.933 166.813 172.268 167.211 172.755C167.784 173.469 167.948 174.44 168.379 175.249C168.814 176.063 169.787 176.756 170.581 176.32C171.272 175.942 171.38 174.965 171.211 174.183C171.037 173.406 170.673 172.644 170.735 171.846C170.852 170.329 172.394 169.41 173.751 168.785C175.109 168.16 176.66 167.314 176.876 165.802C176.885 165.508 176.941 165.217 177.039 164.941C177.19 164.694 177.4 164.492 177.649 164.353C181.608 161.669 185.639 158.949 190.167 157.484C190.402 157.406 190.428 157.49 190.668 157.432C191.006 157.232 190.781 156.681 190.458 156.46C190.136 156.24 189.706 156.067 189.624 155.678C189.567 155.394 189.731 155.111 189.772 154.822C189.783 154.648 189.752 154.473 189.681 154.314C189.611 154.155 189.504 154.016 189.369 153.909C189.234 153.802 189.075 153.731 188.907 153.701C188.739 153.672 188.566 153.685 188.405 153.74C188.041 153.247 188.758 152.674 189.342 152.506C191.09 152.015 192.884 151.716 194.694 151.614C194.903 151.578 195.117 151.615 195.304 151.719C195.437 151.85 195.516 152.029 195.524 152.219C195.533 152.408 195.47 152.594 195.35 152.737C195.103 153.018 194.831 153.273 194.535 153.499C194.242 153.791 194.032 154.161 193.929 154.568C193.826 154.974 193.834 155.402 193.951 155.804C194.899 156.298 195.923 156.807 196.973 156.634C198.018 156.46 198.945 155.253 198.453 154.292C197.998 153.394 196.62 153.189 196.384 152.207C196.108 151.057 197.695 150.033 197.337 148.909C197.183 148.416 196.702 148.122 196.333 147.77C195.899 147.332 195.604 146.77 195.486 146.157C195.368 145.545 195.433 144.91 195.672 144.336C195.073 144.443 194.457 144.402 193.876 144.215C193.295 144.029 192.766 143.703 192.333 143.264C191.534 142.44 190.899 141.132 189.762 141.174C188.722 141.206 187.826 142.45 186.853 142.072C186.612 141.978 186.361 141.789 186.131 141.899C186.055 141.949 185.991 142.016 185.944 142.095C185.897 142.175 185.868 142.264 185.859 142.356C185.613 143.569 186.038 144.95 185.393 146C184.691 147.14 183.068 147.297 182.218 148.326C181.757 148.883 181.577 149.634 181.152 150.222C180.727 150.81 179.831 151.188 179.319 150.674C179.569 150.147 179.638 149.548 179.513 148.975C179.389 148.403 179.078 147.891 178.632 147.523C178.161 147.206 177.651 146.951 177.116 146.767C176.519 146.508 175.95 146.184 175.421 145.801C175.157 145.636 174.943 145.4 174.801 145.118C174.689 144.764 174.704 144.38 174.842 144.036C175.102 143.278 175.558 142.606 176.161 142.094C176.765 141.581 177.494 141.247 178.269 141.127C178.945 141.033 179.733 141.064 180.184 140.534C180.42 140.255 180.543 139.83 180.891 139.72C181.11 139.673 181.339 139.7 181.541 139.799C182.387 140.103 183.226 140.408 184.072 140.712C184.353 140.845 184.665 140.897 184.973 140.865C185.126 140.844 185.265 140.765 185.363 140.643C185.461 140.521 185.51 140.366 185.501 140.208C185.419 139.778 184.773 139.573 184.835 139.137C184.865 138.995 184.938 138.866 185.045 138.769C185.958 137.773 187.075 136.996 188.316 136.494C189.556 135.992 190.889 135.778 192.22 135.866C192.538 136.406 192.036 137.042 191.611 137.499C191.191 137.961 190.853 138.78 191.365 139.132C191.572 139.243 191.803 139.297 192.036 139.289C192.659 139.375 193.264 139.563 193.829 139.846C194.704 140.234 195.565 140.665 196.405 141.127C196.281 140.564 196.302 139.978 196.466 139.426C196.559 139.155 196.746 138.929 196.993 138.792C197.239 138.655 197.526 138.617 197.798 138.685C198.3 138.885 198.556 139.568 199.094 139.631C199.806 139.715 200.087 138.633 199.79 137.961C199.493 137.289 198.899 136.732 198.853 135.992C198.817 135.498 199.002 134.884 198.617 134.584C198.481 134.491 198.324 134.434 198.162 134.416C194.945 133.812 191.727 133.207 188.507 132.599C187.933 132.489 187.109 132.573 187.083 133.166C187.068 133.503 187.36 133.833 187.232 134.138C187.093 134.463 186.643 134.437 186.315 134.553C186.069 134.667 185.865 134.861 185.736 135.104C185.607 135.348 185.558 135.628 185.598 135.902C185.685 136.448 185.892 136.967 186.202 137.42C185.572 137.152 184.625 137.105 183.995 136.832C183.903 136.084 183.717 135.351 183.442 134.653C183.426 134.541 183.387 134.435 183.326 134.341C183.266 134.247 183.187 134.168 183.094 134.109C183 134.05 182.896 134.012 182.787 133.999C182.678 133.986 182.567 133.998 182.463 134.033C181.634 134.164 180.804 134.29 179.974 134.421C179.766 134.432 179.566 134.511 179.406 134.647C179.083 134.999 179.401 135.561 179.39 136.044C179.36 136.314 179.249 136.568 179.072 136.77C178.895 136.973 178.661 137.113 178.402 137.173C177.881 137.282 177.343 137.274 176.824 137.152C175.662 136.968 174.504 136.784 173.342 136.601C174.368 136.265 175.281 135.639 175.974 134.794C176.435 134.238 176.681 133.198 176.015 132.935C175.818 132.88 175.613 132.864 175.411 132.888C173.833 132.899 172.589 131.549 171.114 130.977C170.65 130.799 170.159 130.707 169.664 130.704L168.015 132.778Z" fill="#FD6234"/>
<path d="M302.399 184.417C302.219 184.666 301.981 184.865 301.708 184.998C301.435 185.131 301.134 185.193 300.832 185.179C299.229 185.037 298.553 182.669 296.965 182.401C296.825 182.364 296.676 182.379 296.545 182.443C296.31 182.574 296.269 182.9 296.253 183.173C296.187 184.528 296.13 185.935 296.648 187.185C297.4 189.012 299.352 190.545 298.942 192.483C296.74 191.438 295.593 188.902 295.075 186.471C294.553 184.039 294.471 181.487 293.539 179.187C292.827 180.117 291.341 179.35 290.696 178.373C290.081 177.449 289.702 176.378 289.108 175.438C288.514 174.503 287.603 173.663 286.517 173.611C285.375 173.558 284.381 174.361 283.51 175.123C282.753 175.696 282.117 176.422 281.641 177.255C281.031 178.515 281.19 179.996 281.159 181.398C281.129 182.91 280.816 184.512 279.807 185.625C278.798 186.733 276.939 187.122 275.828 186.119C275.29 185.544 274.907 184.837 274.716 184.065C273.508 180.455 272.502 176.777 271.705 173.049C271.52 173.899 270.788 174.997 270.091 174.498C269.936 174.362 269.81 174.194 269.723 174.004C268.422 171.752 266.02 170.397 263.587 169.583C261.159 168.774 258.603 168.396 256.201 167.503C254.854 167.002 253.567 166.345 252.365 165.545C252.06 166.006 251.881 166.543 251.849 167.099C251.816 167.656 251.931 168.211 252.181 168.706C252.451 169.19 252.869 169.57 253.371 169.786C253.873 170.001 254.43 170.041 254.957 169.898C255.489 169.719 255.94 169.341 256.467 169.152C256.995 168.969 257.707 169.058 257.937 169.583C258.163 170.082 257.825 170.686 257.994 171.211C258.245 172.004 259.418 172.067 259.827 172.791C259.948 173.078 259.975 173.397 259.906 173.701C259.837 174.006 259.675 174.279 259.443 174.482C258.972 174.876 258.452 175.205 257.896 175.459C256.176 176.441 254.951 178.116 253.446 179.418C251.94 180.726 249.814 181.676 248.022 180.841C248.447 178.62 245.871 176.992 245.394 174.782C245.235 174.052 245.317 173.28 245.097 172.571C244.775 171.542 243.883 170.838 243.156 170.061C242.272 169.107 241.584 167.981 241.131 166.75C240.678 165.519 240.47 164.208 240.518 162.893C240.559 161.979 240.723 161.05 240.518 160.157C240.319 159.27 239.596 158.409 238.705 158.445C236.672 158.54 234.106 158.697 233.041 156.917C232.656 156.282 232.493 155.352 233.046 154.864C233.262 154.724 233.503 154.628 233.756 154.584C234.008 154.54 234.266 154.548 234.516 154.607C236.047 154.759 237.573 154.917 239.105 155.069C240.175 155.174 241.333 155.263 242.255 154.691C243.177 154.118 243.576 152.59 242.721 151.913C242.101 151.419 240.984 151.446 240.8 150.663C240.651 150.007 241.358 149.266 240.974 148.715C240.703 148.326 240.088 148.431 239.714 148.725C239.388 149.073 239.033 149.391 238.654 149.676C237.922 150.064 237.051 149.692 236.262 149.44C235.473 149.188 234.418 149.167 234.039 149.917C233.609 150.752 234.413 151.855 233.993 152.695C233.43 153.803 231.535 153.173 230.746 154.129C229.845 155.221 231.361 156.859 231.058 158.256C230.669 158.454 230.237 158.545 229.803 158.52C229.37 158.495 228.95 158.356 228.585 158.114C228.226 157.865 227.941 157.52 227.759 157.116C227.576 156.713 227.504 156.267 227.55 155.825C227.622 155.195 227.944 154.549 227.729 153.956C227.497 153.497 227.114 153.138 226.649 152.942C225.163 152.097 223.678 151.255 222.193 150.416C221.778 151.204 222.3 152.175 222.956 152.769C223.606 153.357 224.426 153.803 224.856 154.58C225.128 155.119 225.19 155.744 225.028 156.328C224.866 156.911 224.493 157.409 223.985 157.721C223.921 157.766 223.848 157.796 223.771 157.81C223.694 157.824 223.615 157.82 223.54 157.799C223.469 157.757 223.407 157.7 223.358 157.632C223.308 157.564 223.273 157.487 223.253 157.406C222.469 155.342 221.286 153.31 219.401 152.233C217.511 151.151 214.802 151.377 213.563 153.189C213.271 153.619 213.071 154.113 212.815 154.57C211.458 156.991 208.538 158.135 205.813 158.062C205.547 158.079 205.281 158.015 205.05 157.878C204.61 157.568 204.63 156.907 204.697 156.361C204.794 155.589 204.886 154.822 204.984 154.05C204.986 153.579 205.164 153.126 205.48 152.784C205.987 152.375 206.715 152.632 207.36 152.622C207.847 152.599 208.316 152.424 208.702 152.118C209.087 151.813 209.372 151.393 209.516 150.915C209.646 150.433 209.645 149.924 209.513 149.443C209.382 148.962 209.124 148.527 208.769 148.185C208.477 147.901 208.082 147.544 208.236 147.161C208.298 147.055 208.382 146.965 208.482 146.896C208.582 146.827 208.696 146.781 208.815 146.761C209.967 146.42 211.191 146.331 212.323 145.921C213.46 145.517 214.561 144.687 214.833 143.485C214.915 143.117 214.951 142.671 215.273 142.487C215.436 142.42 215.61 142.384 215.785 142.382C216.401 142.292 216.962 141.968 217.357 141.476C217.752 140.983 217.953 140.357 217.921 139.72C218.464 139.331 219.227 139.62 219.755 140.035C220.277 140.45 220.743 140.996 221.383 141.174C222.577 141.51 223.729 140.423 224.969 140.418C225.491 140.418 226.029 140.607 226.515 140.423C227.012 140.24 227.309 139.735 227.688 139.363C228.072 138.985 228.738 138.759 229.092 139.163C228.989 138.402 228.892 137.646 228.79 136.889C229.393 137.045 230.022 137.067 230.634 136.953C231.246 136.838 231.828 136.591 232.339 136.228C231.048 135.781 229.763 135.335 228.472 134.889C228.336 134.854 228.211 134.786 228.108 134.689C227.827 134.379 228.108 133.896 228.334 133.544C228.882 132.699 228.974 131.307 228.072 130.887C227.458 130.599 226.756 130.945 226.167 131.281C225.225 131.817 224.282 132.358 223.34 132.893C223.253 133.445 223.909 133.76 224.313 134.127C224.56 134.352 224.734 134.647 224.814 134.975C224.893 135.303 224.874 135.648 224.759 135.964C224.644 136.281 224.438 136.554 224.168 136.748C223.898 136.943 223.577 137.048 223.248 137.052C223.433 137.301 223.562 137.588 223.625 137.895C223.688 138.201 223.684 138.518 223.611 138.822C222.981 138.869 222.346 138.916 221.711 138.964C221.606 138.985 221.497 138.985 221.392 138.963C221.286 138.942 221.186 138.899 221.097 138.838C220.892 138.654 220.923 138.328 220.871 138.055C220.787 137.729 220.609 137.436 220.361 137.214C220.112 136.992 219.805 136.852 219.478 136.811C218.826 136.735 218.165 136.798 217.537 136.994C217.264 137.093 216.965 137.086 216.697 136.973C216.545 136.87 216.43 136.719 216.369 136.543C216.258 136.183 216.239 135.799 216.314 135.429C216.39 135.06 216.557 134.716 216.8 134.432C217.291 133.872 217.833 133.36 218.418 132.904C219.743 131.714 220.717 130.168 221.23 128.44C222.275 127.989 223.355 127.38 224.405 126.928C225.249 126.527 226.134 126.222 227.043 126.02C227.899 125.886 228.765 125.843 229.63 125.894C230.808 125.915 231.991 125.936 233.169 125.962C234.22 125.916 235.271 126.071 236.267 126.419C237.235 126.828 238.091 127.716 238.157 128.787C238.177 128.909 238.167 129.034 238.126 129.151C238.086 129.268 238.017 129.372 237.927 129.454C237.791 129.531 237.636 129.567 237.481 129.559C236.503 129.59 236.088 129.842 235.11 129.879C235.73 130.557 236.426 131.271 237.328 131.391C238.915 131.601 240.057 129.916 240.79 128.451C240.816 128.824 240.983 129.171 241.256 129.42C241.529 129.668 241.885 129.797 242.25 129.779C242.642 129.71 243.016 129.56 243.351 129.338C246.501 127.573 250.03 126.638 253.62 126.618C253.585 126.34 253.651 126.057 253.808 125.826C253.964 125.596 254.198 125.432 254.465 125.368C255.197 125.221 255.853 125.867 256.206 126.539C256.555 127.212 256.775 127.989 257.338 128.493C257.896 128.997 258.977 128.971 259.197 128.246C259.412 127.548 258.701 126.949 258.112 126.534C257.517 126.125 256.898 125.363 257.297 124.754C260.309 124.066 263.346 123.383 266.434 123.247C266.959 123.263 267.482 123.17 267.971 122.974C268.213 122.869 268.415 122.685 268.544 122.45C268.674 122.216 268.724 121.944 268.688 121.677C268.014 121.838 267.309 121.79 266.661 121.54C266.014 121.289 265.453 120.847 265.052 120.27C268.222 120.002 271.541 119.765 274.588 120.495L277.257 122.816C276.75 123.357 276.074 123.867 276.442 124.407C276.564 124.532 276.712 124.626 276.874 124.683C277.036 124.741 277.209 124.759 277.38 124.738C278.025 124.749 278.67 124.765 279.31 124.765C292.558 137.756 300.712 155.269 302.235 173.999C301.16 173.957 300.171 175.354 300.31 176.572C300.474 177.985 301.467 179.119 302.179 180.337C302.297 180.535 302.403 180.74 302.497 180.952L302.399 184.417Z" fill="#FD6234"/>
<path d="M0 287.549H391" stroke="#463C74" stroke-width="2" stroke-miterlimit="10"/>
<path d="M161.311 36.1264C164.899 36.1264 167.808 33.1441 167.808 29.4652C167.808 25.7863 164.899 22.804 161.311 22.804C157.722 22.804 154.813 25.7863 154.813 29.4652C154.813 33.1441 157.722 36.1264 161.311 36.1264Z" stroke="#463C74" stroke-width="2" stroke-miterlimit="10"/>
<path d="M353.288 162.98C356.876 162.98 359.785 159.998 359.785 156.319C359.785 152.64 356.876 149.658 353.288 149.658C349.7 149.658 346.791 152.64 346.791 156.319C346.791 159.998 349.7 162.98 353.288 162.98Z" stroke="#463C74" stroke-width="2" stroke-miterlimit="10"/>
<path d="M308.934 96.6191C312.522 96.6191 315.431 93.6368 315.431 89.9579C315.431 86.279 312.522 83.2967 308.934 83.2967C305.345 83.2967 302.436 86.279 302.436 89.9579C302.436 93.6368 305.345 96.6191 308.934 96.6191Z" stroke="#463C74" stroke-width="2" stroke-miterlimit="10"/>
<path d="M266.306 153.706C270.333 153.706 273.597 150.359 273.597 146.23C273.597 142.102 270.333 138.755 266.306 138.755C262.279 138.755 259.015 142.102 259.015 146.23C259.015 150.359 262.279 153.706 266.306 153.706Z" fill="#463C74"/>
<path d="M289.727 132.057C295.035 132.057 299.338 127.645 299.338 122.203C299.338 116.761 295.035 112.349 289.727 112.349C284.419 112.349 280.116 116.761 280.116 122.203C280.116 127.645 284.419 132.057 289.727 132.057Z" fill="white"/>
<path d="M299.447 111.988C296.867 109.408 293.394 107.984 289.79 108.03C286.187 108.075 282.748 109.587 280.232 112.232C274.992 117.739 267.51 145.553 267.51 145.553C267.51 145.553 294.445 137.196 299.685 131.688C302.201 129.043 303.59 125.482 303.545 121.787C303.501 118.093 302.027 114.568 299.447 111.988ZM285.33 126.824C284.438 125.933 283.825 124.79 283.567 123.541C283.309 122.292 283.418 120.992 283.88 119.806C284.342 118.621 285.137 117.602 286.164 116.88C287.191 116.157 288.404 115.763 289.649 115.747C290.894 115.732 292.116 116.095 293.16 116.791C294.204 117.487 295.023 118.485 295.514 119.659C296.005 120.832 296.145 122.129 295.918 123.384C295.69 124.639 295.104 125.797 294.234 126.711C293.068 127.937 291.475 128.637 289.805 128.659C288.135 128.68 286.525 128.02 285.33 126.824Z" fill="#57B894"/>
</g>
<defs>
<clipPath id="clip0">
<rect width="391" height="288" fill="white"/>
</clipPath>
</defs>
</svg>
