<svg width="1054" height="900" viewBox="0 0 1054 900" fill="none" xmlns="http://www.w3.org/2000/svg">
<g clip-path="url(#clip0)">
<path fill-rule="evenodd" clip-rule="evenodd" d="M168.855 -67.7863C177.303 -74.097 189.981 -71.4101 197.171 -61.785L275.284 42.7844C282.474 52.4094 281.454 65.3289 273.006 71.6396C264.558 77.9503 251.88 75.2633 244.69 65.6383L166.577 -38.9312C159.387 -48.5562 160.407 -61.4756 168.855 -67.7863Z" fill="#FFC735"/>
<path fill-rule="evenodd" clip-rule="evenodd" d="M133.238 -252.201C124.79 -245.89 123.772 -232.969 130.964 -223.341L171.334 -169.297C185.017 -150.981 204.116 -139.513 223.654 -135.95C221.528 -116.203 227.106 -94.636 240.789 -76.3193L280.725 -22.857C307.097 12.4467 353.587 22.307 384.564 -0.833196C393.012 -7.14387 394.03 -20.0655 386.838 -29.6934C379.646 -39.3213 366.967 -42.0106 358.519 -35.6999C344.438 -25.1819 323.306 -29.6639 311.319 -45.7107L271.383 -99.173C259.396 -115.22 261.093 -136.755 275.173 -147.273L378.173 -224.214C408.587 -246.933 412.252 -293.45 386.36 -328.111L355.766 -305.257C367.274 -289.852 365.645 -269.179 352.128 -259.081L249.128 -182.14C235.047 -171.622 213.915 -176.104 201.928 -192.151L161.558 -246.194C154.365 -255.823 141.686 -258.512 133.238 -252.201Z" fill="#B4D51E"/>
<path fill-rule="evenodd" clip-rule="evenodd" d="M427.874 57.5139C441.925 47.0173 443.589 25.4861 431.59 9.42321C419.591 -6.63973 398.473 -11.1522 384.421 -0.655648C375.99 5.64216 363.319 2.93456 356.119 -6.70296C348.92 -16.3405 349.919 -29.2596 358.349 -35.5574C389.264 -58.6503 435.724 -48.7231 462.122 -13.3839C488.52 21.9552 484.859 69.3227 453.945 92.4156C445.514 98.7134 432.843 96.0058 425.644 86.3683C418.444 76.7308 419.443 63.8117 427.874 57.5139Z" fill="#463C74"/>
<path fill-rule="evenodd" clip-rule="evenodd" d="M356.102 -6.72561C348.913 -16.3506 349.933 -29.27 358.381 -35.5807C366.829 -41.8914 379.507 -39.2044 386.697 -29.5794C393.886 -19.9544 392.866 -7.03496 384.418 -0.724275C375.97 5.58641 363.292 2.8994 356.102 -6.72561Z" fill="#FD6234"/>
<path fill-rule="evenodd" clip-rule="evenodd" d="M385.823 43.9992C378.633 34.3742 379.653 21.4548 388.101 15.1442C396.549 8.83355 409.227 11.5206 416.417 21.1456C423.607 30.7706 422.587 43.69 414.139 50.0006C405.691 56.3112 393.013 53.6243 385.823 43.9992Z" fill="#FD6234"/>
<path fill-rule="evenodd" clip-rule="evenodd" d="M345.176 74.3622C337.987 64.7372 339.007 51.8177 347.455 45.5071C355.903 39.1964 368.581 41.8834 375.771 51.5084C382.96 61.1334 381.94 74.0528 373.492 80.3635C365.044 86.6742 352.366 83.9872 345.176 74.3622Z" fill="#FD6234"/>
<path fill-rule="evenodd" clip-rule="evenodd" d="M763.617 -71.4841C777.715 -82.0158 779.418 -103.575 767.419 -119.638C755.419 -135.703 734.263 -140.185 720.164 -129.654C706.065 -119.122 704.362 -97.5635 716.362 -81.4994C728.361 -65.4365 749.518 -60.9524 763.617 -71.4841ZM798.052 -142.522C824.45 -107.184 820.706 -59.7526 789.688 -36.5824C758.671 -13.4121 712.126 -23.278 685.729 -58.616C659.33 -93.9552 663.075 -141.385 694.093 -164.555C725.11 -187.726 771.654 -177.861 798.052 -142.522Z" fill="#FFC735"/>
<path fill-rule="evenodd" clip-rule="evenodd" d="M1106.26 -251.34C1097.81 -245.03 1096.8 -232.1 1104 -222.46C1116 -206.394 1114.32 -184.844 1100.24 -174.326L998.258 -98.1465C984.177 -87.6285 963.034 -92.1256 951.033 -108.191C943.832 -117.831 931.146 -120.529 922.698 -114.218C914.25 -107.907 913.238 -94.9776 920.439 -85.3374C934.137 -66.9994 953.25 -55.5126 972.799 -51.936C970.682 -32.1771 976.276 -10.5893 989.974 7.74869L1029.96 61.2731C1056.36 96.6179 1102.87 106.511 1133.85 83.3713C1142.3 77.0606 1143.31 64.1299 1136.11 54.4908C1128.91 44.8517 1116.22 42.1534 1107.78 48.4641C1093.7 58.9821 1072.55 54.4849 1060.55 38.4194L1020.57 -15.105C1008.57 -31.1705 1010.25 -52.7212 1024.33 -63.2392L1126.31 -139.418C1157.29 -162.558 1161 -209.97 1134.6 -245.313C1127.4 -254.954 1114.71 -257.651 1106.26 -251.34Z" fill="#B4D51E"/>
<path fill-rule="evenodd" clip-rule="evenodd" d="M920.194 -85.5822C908.194 -101.646 887.038 -106.129 872.94 -95.5974C858.841 -85.0657 857.138 -63.5073 869.138 -47.4432C881.137 -31.3802 902.294 -26.8962 916.392 -37.4279C924.851 -43.7468 937.545 -41.0574 944.745 -31.4187C951.944 -21.7812 950.923 -8.84501 942.464 -2.52614C911.446 20.6441 864.902 10.7782 838.504 -24.5598C812.106 -59.8989 815.85 -107.329 846.868 -130.499C877.886 -153.669 924.43 -143.805 950.828 -108.466C958.027 -98.828 957.006 -85.8919 948.547 -79.573C940.088 -73.2541 927.393 -75.9446 920.194 -85.5822Z" fill="#463C74"/>
<path d="M1131.1 411.34C1145.19 400.808 1166.35 405.293 1178.35 421.355C1190.35 437.418 1188.65 458.978 1174.55 469.51C1160.45 480.041 1139.29 475.557 1127.29 459.494C1120.1 449.857 1107.4 447.166 1098.94 453.485C1090.48 459.804 1089.46 472.74 1096.66 482.378C1123.06 517.717 1169.6 527.582 1200.62 504.412C1231.64 481.241 1235.38 433.811 1208.98 398.472C1182.59 363.133 1136.04 353.268 1105.02 376.439C1096.57 382.757 1095.54 395.694 1102.74 405.331C1109.94 414.969 1122.64 417.659 1131.1 411.34Z" fill="#E5E0D5"/>
<path d="M318.935 99.3956C352.009 143.673 410.325 156.032 449.188 127.002C457.636 120.691 470.314 123.378 477.504 133.003C484.694 142.628 483.674 155.548 475.226 161.858C419.467 203.51 335.795 185.776 288.341 122.249C281.151 112.624 282.171 99.7049 290.619 93.3942C299.067 87.0835 311.745 89.7706 318.935 99.3956Z" fill="#E5E0D5"/>
<path fill-rule="evenodd" clip-rule="evenodd" d="M812.479 6.16099C850.871 57.5551 918.561 71.9016 963.67 38.2049C972.128 31.887 984.82 34.5771 992.018 44.2132C999.217 53.8492 998.195 66.7833 989.738 73.1012C927.713 119.434 834.638 99.707 781.85 29.0408C774.652 19.4048 775.673 6.47066 784.131 0.152769C792.589 -6.16512 805.281 -3.47505 812.479 6.16099Z" fill="#B4D51E"/>
<path fill-rule="evenodd" clip-rule="evenodd" d="M1064.77 409.609C1056.33 415.92 1055.31 428.839 1062.5 438.464C1069.69 448.089 1082.36 450.776 1090.81 444.466C1099.26 438.155 1100.28 425.236 1093.09 415.611C1085.9 405.986 1073.22 403.299 1064.77 409.609Z" fill="#FD6234"/>
<path fill-rule="evenodd" clip-rule="evenodd" d="M1030.18 363.3C1021.73 369.611 1020.71 382.53 1027.9 392.155C1035.09 401.78 1047.77 404.467 1056.22 398.157C1064.67 391.846 1065.69 378.926 1058.5 369.301C1051.31 359.676 1038.63 356.989 1030.18 363.3Z" fill="#FD6234"/>
<g style="mix-blend-mode:multiply">
<path fill-rule="evenodd" clip-rule="evenodd" d="M924.964 974.49C898.563 939.146 902.278 891.745 933.255 868.605L1035.24 792.426C1066.21 769.286 1112.72 779.17 1139.12 814.514C1165.52 849.858 1161.81 897.259 1130.83 920.399L1028.85 996.578C997.874 1019.72 951.366 1009.83 924.964 974.49ZM1002.78 961.676L1104.76 885.497C1118.84 874.979 1120.53 853.434 1108.53 837.367C1096.53 821.301 1075.39 816.809 1061.31 827.327L959.327 903.507C945.247 914.025 943.557 935.57 955.558 951.636C967.56 967.703 988.699 972.194 1002.78 961.676Z" fill="#B4D51E"/>
</g>
<path fill-rule="evenodd" clip-rule="evenodd" d="M890.228 757.609C878.229 741.546 857.072 737.062 842.974 747.594C828.875 758.126 827.173 779.685 839.172 795.748C851.171 811.811 872.328 816.295 886.426 805.763C900.525 795.232 902.227 773.672 890.228 757.609ZM816.902 712.692C847.92 689.522 894.463 699.387 920.862 734.726C947.26 770.065 943.516 817.495 912.498 840.665C881.48 863.835 834.937 853.971 808.538 818.632C782.14 783.292 785.884 735.862 816.902 712.692Z" fill="#FFC735"/>
<path d="M703.136 353.926C710.33 363.555 709.295 376.492 700.825 382.819C686.709 393.363 684.985 414.923 696.974 430.973L783.81 547.219C795.799 563.269 816.962 567.732 831.079 557.187C839.548 550.86 852.246 553.538 859.44 563.168C866.633 572.797 865.599 585.734 857.129 592.06C838.307 606.121 813.79 608.053 791.524 599.533C781.392 613.484 782.084 634.47 794.707 651.368L845.071 718.79C852.265 728.42 851.23 741.356 842.76 747.683C834.291 754.01 821.593 751.332 814.399 741.702L764.035 674.28C740.475 642.741 738.018 602.371 756.544 574.42C755.375 573.034 754.239 571.605 753.138 570.131L666.302 453.885C639.925 418.575 643.718 371.144 674.775 347.945C683.244 341.618 695.943 344.296 703.136 353.926Z" fill="#E5E0D5"/>
<path fill-rule="evenodd" clip-rule="evenodd" d="M778.879 74.2871C805.277 109.626 801.565 157.032 770.588 180.172L668.608 256.351C637.63 279.491 591.119 269.602 564.721 234.263C538.322 198.924 542.034 151.518 573.012 128.378L674.992 52.1991C705.969 29.0589 752.48 38.9479 778.879 74.2871ZM744.516 145.27C758.597 134.752 760.284 113.204 748.285 97.1408C736.286 81.0779 715.144 76.5828 701.063 87.1008L599.083 163.28C585.003 173.798 583.316 195.347 595.315 211.409C607.314 227.472 628.456 231.968 642.536 221.449L744.516 145.27Z" fill="#B4D51E"/>
<path fill-rule="evenodd" clip-rule="evenodd" d="M672.536 376.771C679.726 386.396 692.414 389.075 700.874 382.756C714.975 372.222 736.121 376.688 748.104 392.73L834.897 508.918C846.88 524.96 845.164 546.504 831.063 557.038C822.603 563.358 821.573 576.284 828.763 585.909C835.952 595.534 848.64 598.214 857.101 591.894C873.196 579.871 881.957 561.326 882.98 541.335C902.44 546.026 922.708 542.885 938.804 530.862L985.783 495.769C1016.81 472.595 1020.58 425.199 994.218 389.906C987.028 380.281 974.34 377.601 965.879 383.921C957.419 390.241 956.389 403.168 963.579 412.793C975.563 428.835 973.846 450.379 959.745 460.912L912.766 496.006C898.665 506.539 877.519 502.073 865.536 486.031L778.744 369.844C778.743 369.843 778.744 369.844 778.744 369.844C752.38 334.551 705.859 324.725 674.836 347.899C666.376 354.219 665.346 367.146 672.536 376.771Z" fill="#B4D51E"/>
<path fill-rule="evenodd" clip-rule="evenodd" d="M857.331 591.793C843.232 602.325 841.53 623.884 853.529 639.947C865.528 656.01 886.685 660.494 900.783 649.963C914.882 639.431 916.584 617.871 904.585 601.808C897.386 592.171 898.407 579.234 906.866 572.916C915.325 566.597 928.02 569.287 935.219 578.925C961.617 614.264 957.873 661.694 926.855 684.864C895.837 708.035 849.294 698.17 822.895 662.831C796.497 627.491 800.241 580.061 831.259 556.891C839.718 550.572 852.413 553.263 859.612 562.9C866.811 572.538 865.79 585.474 857.331 591.793Z" fill="#463C74"/>
<path fill-rule="evenodd" clip-rule="evenodd" d="M871.852 349.613C885.951 339.081 887.653 317.522 875.654 301.459C863.655 285.396 842.498 280.912 828.399 291.444C814.301 301.975 812.598 323.535 824.597 339.598C831.797 349.235 830.775 362.172 822.316 368.49C813.857 374.809 801.163 372.119 793.964 362.481C767.565 327.142 771.31 279.712 802.328 256.542C833.345 233.372 879.889 243.236 906.287 278.575C932.686 313.915 928.941 361.345 897.924 384.515C889.465 390.834 876.77 388.143 869.571 378.506C862.372 368.868 863.393 355.932 871.852 349.613Z" fill="#463C74"/>
<path fill-rule="evenodd" clip-rule="evenodd" d="M610.936 172.975C629.765 158.909 632.024 130.357 616.264 109.258C600.503 88.1593 572.482 82.2252 553.653 96.2907C543.251 104.061 537.894 116.249 537.861 129.231C537.833 140.66 528.803 148.761 517.694 147.324C506.584 145.888 497.6 135.459 497.63 124.031C497.691 99.4135 507.888 76.1702 527.615 61.4342C563.247 34.8177 616.677 45.8432 646.933 86.3475C677.19 126.852 672.605 181.215 636.974 207.831C628.505 214.158 615.81 211.483 608.62 201.858C601.43 192.233 602.467 179.301 610.936 172.975Z" fill="#FD6234"/>
<path fill-rule="evenodd" clip-rule="evenodd" d="M857.515 591.584C849.067 597.895 836.389 595.208 829.199 585.583C822.01 575.958 823.03 563.039 831.478 556.728C839.926 550.417 852.604 553.104 859.793 562.729C866.983 572.354 865.963 585.274 857.515 591.584Z" fill="#FD6234"/>
<path fill-rule="evenodd" clip-rule="evenodd" d="M700.852 382.772C692.404 389.083 679.726 386.396 672.536 376.771C665.346 367.146 666.366 354.226 674.814 347.916C683.262 341.605 695.94 344.292 703.13 353.917C710.32 363.542 709.3 376.462 700.852 382.772Z" fill="#FD6234"/>
<path fill-rule="evenodd" clip-rule="evenodd" d="M842.722 747.712C834.273 754.023 821.595 751.336 814.406 741.711C807.216 732.086 808.236 719.166 816.684 712.855C825.132 706.545 837.81 709.232 845 718.857C852.19 728.482 851.17 741.401 842.722 747.712Z" fill="#FD6234"/>
<path fill-rule="evenodd" clip-rule="evenodd" d="M878.123 794.193C869.675 800.503 856.997 797.816 849.808 788.191C842.618 778.566 843.638 765.647 852.086 759.336C860.534 753.025 873.212 755.712 880.402 765.337C887.591 774.962 886.571 787.882 878.123 794.193Z" fill="#FD6234"/>
<path fill-rule="evenodd" clip-rule="evenodd" d="M768.118 504.809C756.159 488.8 735.035 484.359 720.936 494.891C706.838 505.423 705.103 526.939 717.062 542.948C724.238 552.554 723.197 565.464 714.738 571.783C706.279 578.101 693.604 575.437 686.429 565.832C660.118 530.61 663.934 483.276 694.952 460.105C725.969 436.935 772.442 446.704 798.752 481.926C805.927 491.531 804.887 504.441 796.428 510.76C787.969 517.079 775.294 514.415 768.118 504.809Z" fill="#FFC735"/>
<path fill-rule="evenodd" clip-rule="evenodd" d="M1068.49 336.187C1051.92 314.013 1021.91 307.513 1001.34 322.873C980.78 338.234 978.498 368.862 995.062 391.036C1002.27 400.678 1001.26 413.612 992.807 419.923C984.359 426.233 971.671 423.532 964.468 413.89C933.013 371.782 938.374 315.508 975.259 287.955C1012.14 260.401 1067.63 271.225 1099.08 313.334C1106.28 322.976 1105.28 335.909 1096.83 342.22C1088.38 348.531 1075.69 345.83 1068.49 336.187Z" fill="#FFC735"/>
<path fill-rule="evenodd" clip-rule="evenodd" d="M793.711 362.262C760.612 317.952 702.218 305.61 663.284 334.694C632.249 357.877 585.703 348.039 559.319 312.72C532.936 277.4 536.707 229.976 567.741 206.793C576.205 200.471 588.9 203.154 596.095 212.786C603.291 222.418 602.262 235.353 593.798 241.675C579.692 252.213 577.978 273.77 589.97 289.824C601.962 305.878 623.12 310.35 637.227 299.812C693.089 258.083 776.873 275.792 824.362 339.366C831.557 348.998 830.529 361.932 822.065 368.255C813.602 374.577 800.907 371.894 793.711 362.262Z" fill="#FFC735"/>
<path d="M781.669 78.0217C836.313 151.174 932.663 171.594 996.869 123.632C1005.32 117.321 1018 120.008 1025.19 129.634C1032.38 139.259 1031.36 152.178 1022.91 158.489C941.804 219.073 820.1 193.279 751.075 100.875C743.885 91.2503 744.905 78.331 753.353 72.0203C761.801 65.7096 774.479 68.3966 781.669 78.0217Z" fill="#E5E0D5"/>
<path fill-rule="evenodd" clip-rule="evenodd" d="M956.226 700.938C995.089 671.908 999.781 612.482 966.706 568.205C959.516 558.58 960.536 545.66 968.984 539.35C977.432 533.039 990.11 535.726 997.3 545.351C1044.75 608.878 1038.02 694.143 982.264 735.795C973.816 742.106 961.138 739.419 953.948 729.793C946.758 720.168 947.778 707.249 956.226 700.938Z" fill="#FD6234"/>
<path fill-rule="evenodd" clip-rule="evenodd" d="M627.102 41.4674C605.087 11.9961 566.27 3.7691 540.402 23.092C531.968 29.3928 519.31 26.71 512.131 17.1001C504.952 7.49016 505.971 -5.40896 514.406 -11.7097C557.143 -43.635 621.274 -30.0428 657.648 18.6495C664.826 28.2595 663.808 41.1586 655.373 47.4594C646.938 53.7602 634.28 51.0773 627.102 41.4674Z" fill="#FFC735"/>
<path fill-rule="evenodd" clip-rule="evenodd" d="M796.448 510.745C788 517.056 775.322 514.369 768.132 504.744C760.942 495.119 761.962 482.199 770.41 475.889C778.858 469.578 791.536 472.265 798.726 481.89C805.916 491.515 804.896 504.435 796.448 510.745Z" fill="#FD6234"/>
<path fill-rule="evenodd" clip-rule="evenodd" d="M822.466 368.732C814.018 375.042 801.34 372.355 794.15 362.73C786.96 353.105 787.98 340.186 796.428 333.875C804.876 327.564 817.554 330.251 824.744 339.877C831.934 349.502 830.914 362.421 822.466 368.732Z" fill="#FD6234"/>
<path fill-rule="evenodd" clip-rule="evenodd" d="M947.529 274.533C939.081 280.844 926.403 278.157 919.213 268.532C912.023 258.907 913.043 245.988 921.491 239.677C929.939 233.366 942.617 236.053 949.807 245.678C956.997 255.303 955.977 268.223 947.529 274.533Z" fill="#FD6234"/>
<path fill-rule="evenodd" clip-rule="evenodd" d="M988.612 243.844C980.164 250.155 967.486 247.468 960.297 237.843C953.107 228.218 954.127 215.298 962.575 208.988C971.023 202.677 983.701 205.364 990.891 214.989C998.081 224.614 997.06 237.533 988.612 243.844Z" fill="#FD6234"/>
<path fill-rule="evenodd" clip-rule="evenodd" d="M992.807 419.923C984.359 426.233 971.681 423.546 964.492 413.921C957.302 404.296 958.322 391.377 966.77 385.066C975.218 378.755 987.896 381.442 995.086 391.067C1002.28 400.692 1001.26 413.612 992.807 419.923Z" fill="#FD6234"/>
<path fill-rule="evenodd" clip-rule="evenodd" d="M313.309 123.769C321.757 117.459 322.777 104.539 315.587 94.9141C308.397 85.289 295.719 82.602 287.271 88.9127C278.823 95.2234 277.803 108.143 284.993 117.768C292.183 127.393 304.861 130.08 313.309 123.769Z" fill="#463C74"/>
<path fill-rule="evenodd" clip-rule="evenodd" d="M857.059 415.041C848.611 421.352 835.933 418.665 828.743 409.04C821.553 399.415 822.573 386.495 831.021 380.184C839.469 373.874 852.147 376.561 859.337 386.186C866.527 395.811 865.507 408.73 857.059 415.041Z" fill="#463C74"/>
<path fill-rule="evenodd" clip-rule="evenodd" d="M891.652 461.35C883.204 467.661 870.526 464.974 863.336 455.349C856.146 445.724 857.166 432.804 865.614 426.494C874.062 420.183 886.74 422.87 893.93 432.495C901.12 442.12 900.1 455.04 891.652 461.35Z" fill="#463C74"/>
<path fill-rule="evenodd" clip-rule="evenodd" d="M776.787 103.391C768.339 109.702 755.661 107.015 748.471 97.3897C741.281 87.7647 742.301 74.8454 750.749 68.5347C759.197 62.224 771.875 64.911 779.065 74.5361C786.255 84.1611 785.235 97.0804 776.787 103.391Z" fill="#FD6234"/>
<path fill-rule="evenodd" clip-rule="evenodd" d="M593.967 241.51C585.519 247.82 572.841 245.133 565.651 235.508C558.461 225.883 559.481 212.964 567.929 206.653C576.377 200.342 589.055 203.029 596.245 212.654C603.435 222.28 602.415 235.199 593.967 241.51Z" fill="#FD6234"/>
<path fill-rule="evenodd" clip-rule="evenodd" d="M1235.87 211.202C1189.43 245.891 1120.46 231.504 1081.76 179.697C1074.57 170.072 1061.87 167.396 1053.41 173.721C1044.94 180.046 1043.9 192.977 1051.09 202.602C1104.43 273.999 1198.84 293.173 1261.91 246.058C1270.37 239.733 1271.41 226.802 1264.22 217.177C1257.03 207.552 1244.34 204.877 1235.87 211.202Z" fill="#FD6234"/>
<path fill-rule="evenodd" clip-rule="evenodd" d="M417.367 290.418C410.177 280.793 411.184 267.883 419.615 261.585L463.381 228.892C471.812 222.594 484.477 225.291 491.667 234.916C498.857 244.541 497.85 257.45 489.419 263.749L445.653 296.441C437.222 302.74 424.557 300.043 417.367 290.418Z" fill="#B4D51E"/>
<path fill-rule="evenodd" clip-rule="evenodd" d="M492.095 364.932C500.543 358.621 513.227 361.315 520.424 370.95L623.806 509.346C631.003 518.981 629.988 531.908 621.54 538.218C613.092 544.529 600.409 541.834 593.212 532.2L489.829 393.804C482.633 384.169 483.647 371.242 492.095 364.932Z" fill="#FFC735"/>
<path fill-rule="evenodd" clip-rule="evenodd" d="M596.572 536.698C589.382 527.073 590.402 514.154 598.85 507.843C607.298 501.533 619.976 504.22 627.166 513.845C634.356 523.47 633.336 536.389 624.888 542.7C616.44 549.011 603.762 546.323 596.572 536.698Z" fill="#FD6234"/>
<path fill-rule="evenodd" clip-rule="evenodd" d="M1055.79 523.381C1101.81 584.983 1182.94 602.179 1237.01 561.79C1245.46 555.479 1258.14 558.166 1265.33 567.791C1272.52 577.416 1271.5 590.335 1263.05 596.646C1192.08 649.657 1085.59 627.087 1025.2 546.234C1018.01 536.609 1019.03 523.69 1027.48 517.379C1035.92 511.069 1048.6 513.756 1055.79 523.381Z" fill="#B4D51E"/>
<path fill-rule="evenodd" clip-rule="evenodd" d="M1314.94 808.424C1252.53 724.864 1142.48 701.543 1069.14 756.327C1060.68 762.648 1047.98 759.957 1040.78 750.316C1033.58 740.675 1034.6 727.735 1043.06 721.414C1133.32 653.987 1268.76 682.689 1345.59 785.533C1352.79 795.169 1351.77 808.114 1343.31 814.435C1334.84 820.756 1322.14 818.06 1314.94 808.424Z" fill="#FFC735"/>
</g>
<defs>
<clipPath id="clip0">
<rect width="1673" height="1109.79" fill="white" transform="translate(889.107 -927) rotate(53.2403)"/>
</clipPath>
</defs>
</svg>
